<?xml version="1.0" encoding="utf-8"?>
<!-- Generator: Adobe Illustrator 21.0.0, SVG Export Plug-In . SVG Version: 6.00 Build 0)  -->
<svg version="1.1" id="Layer_1" xmlns="http://www.w3.org/2000/svg" xmlns:xlink="http://www.w3.org/1999/xlink" x="0px" y="0px"
	 viewBox="0 0 156.8 159.2" style="enable-background:new 0 0 156.8 159.2;" xml:space="preserve">
<style type="text/css">
	.st0{fill:#FFFFFF;}
</style>
<g>
	<g>
		<polygon class="st0" points="108.6,23.4 111.3,27.9 148.5,27.9 140,42.6 145.7,42.6 156.8,23.4 		"/>
		<polygon class="st0" points="48.3,23.4 45.6,27.9 8.4,27.9 16.9,42.6 11.1,42.6 0,23.4 		"/>
	</g>
	<polygon class="st0" points="89.1,130.8 78.4,149.2 67.8,130.8 62,130.8 78.4,159.2 94.8,130.8 	"/>
	<g class="sportbase">
		<g>
			<path class="st0" d="M35.2,56.1h-6.4v-1.5c0-2.6-1.1-3.5-2.5-3.5c-1.4,0-2.4,1-2.4,2.9c0,2.7,1.8,4.2,4.8,6.3
				c4.5,3.2,7.1,6.6,7.1,12.1c0,6.2-3.6,9.8-9.3,9.8c-5,0-9.3-2.5-9.3-10.1v-1.6h6.5v1.7c0,2.8,1.1,3.8,2.8,3.8
				c1.6,0,2.6-1.1,2.6-3.1c0-3.1-2.2-5-4.7-6.7c-4.1-2.8-7-6.1-7-11.7c0-6,3.6-9.6,9-9.6c5.4,0,8.8,2.9,8.8,9.6V56.1z"/>
			<path class="st0" d="M45.2,70.8v10.7h-6.8v-36h9.2c5.4,0,9,3.4,9,9.5v6.1c0,6.3-3.7,9.6-9.2,9.6H45.2z M45.2,51.8v12.9h1.5
				c1.6,0,3-1,3-3.5v-5.8c0-2.6-1.3-3.6-2.9-3.6H45.2z"/>
			<path class="st0" d="M58.8,72.3V54.7c0-6.7,4.5-9.8,9.8-9.8c5.3,0,9.8,3.2,9.8,9.8v17.5c0,6.7-4.6,9.9-9.8,9.9
				C63.3,82.2,58.8,79,58.8,72.3z M71.6,72.1V55c0-2.6-1.4-3.7-3-3.7c-1.6,0-3,1.2-3,3.7v17.1c0,2.6,1.3,3.7,3,3.7
				C70.3,75.8,71.6,74.7,71.6,72.1z"/>
			<path class="st0" d="M88.5,68.9h-0.2v12.6h-6.7v-36h8.7c5.1,0,9,2.8,9,9.2v5c0,3.9-1.6,6.6-4.3,7.9l5.9,13.8h-7.6L88.5,68.9z
				 M88.3,51.8v11.2h1.5c1.8,0,2.8-0.9,2.8-3.2V55c0-2.3-1-3.3-3-3.3H88.3z"/>
			<path class="st0" d="M106.9,81.5V51.8h-6v-6.2h18.9v6.2h-6.1v29.8H106.9z"/>
			<path class="st0" d="M138.9,56.1h-6.4v-1.5c0-2.6-1.1-3.5-2.5-3.5c-1.4,0-2.4,1-2.4,2.9c0,2.7,1.8,4.2,4.8,6.3
				c4.5,3.2,7.1,6.6,7.1,12.1c0,6.2-3.6,9.8-9.3,9.8c-5,0-9.3-2.5-9.3-10.1v-1.6h6.5v1.7c0,2.8,1.1,3.8,2.8,3.8
				c1.6,0,2.6-1.1,2.6-3.1c0-3.1-2.2-5-4.7-6.7c-4.1-2.8-7-6.1-7-11.7c0-6,3.6-9.6,9-9.6c5.4,0,8.8,2.9,8.8,9.6V56.1z"/>
			<path class="st0" d="M39.6,88.3h8.5c5.2,0,8.7,3.1,8.7,8.8v1.7c0,2.9-1.2,5.3-3.3,6.7c2.7,1.3,4.2,3.9,4.2,7.4v1.9
				c0,6.4-3.8,9.5-8.6,9.5h-9.5V88.3z M46.1,94.2v9h1.4c1.7,0,3-0.8,3-3.8v-1.5c0-2.9-1.3-3.7-2.8-3.7H46.1z M46.1,109.1v9.2h2
				c1.6,0,2.8-1.1,2.8-3.6v-1.9c0-2.6-1.3-3.7-2.9-3.7H46.1z"/>
			<path class="st0" d="M72,117.3h-6.2l-1.2,7h-6.5l6.5-36h8.8l6.6,36h-6.8L72,117.3z M69,97.5l-2.3,14h4.5L69,97.5z"/>
			<path class="st0" d="M98.6,98.9h-6.4v-1.5c0-2.6-1.1-3.5-2.5-3.5c-1.4,0-2.4,1-2.4,2.9c0,2.7,1.8,4.2,4.8,6.3
				c4.5,3.2,7.1,6.6,7.1,12.1c0,6.2-3.6,9.8-9.3,9.8c-5,0-9.3-2.5-9.3-10.1v-1.6h6.5v1.7c0,2.8,1.1,3.8,2.8,3.8c1.6,0,2.6-1,2.6-3.1
				c0-3.1-2.2-5-4.7-6.7c-4.1-2.8-7-6.1-7-11.7c0-6,3.6-9.6,9-9.6c5.4,0,8.8,2.9,8.8,9.6V98.9z"/>
			<path class="st0" d="M101.8,88.3h16.2v6.1h-9.5v8.6h8.4v6.2h-8.4v9h9.7v6.1h-16.4V88.3z"/>
		</g>
	</g>
	<g>
		<polygon class="st0" points="144.5,96.1 138.7,96.1 133.1,106.2 138.6,116.5 144.6,116.5 138.8,106.2 		"/>
		<polygon class="st0" points="148.9,106.2 154.6,96.1 148.8,96.1 143.2,106.2 148.7,116.5 154.7,116.5 		"/>
		<polygon class="st0" points="134.4,96.1 128.6,96.1 123,106.2 128.5,116.5 134.5,116.5 128.8,106.2 		"/>
		<polygon class="st0" points="18.2,96.1 12.2,96.1 18,106.4 12.3,116.5 18.1,116.5 23.7,106.4 		"/>
		<polygon class="st0" points="8.1,96.1 2.1,96.1 7.9,106.4 2.2,116.5 8.1,116.5 13.6,106.4 		"/>
		<polygon class="st0" points="22.3,96.1 28.1,106.4 22.4,116.5 28.2,116.5 33.8,106.4 28.3,96.1 		"/>
	</g>
	<g>
		<g>
			<path class="st0" d="M100,34.4c-2.4,0-3.8-1.2-3.9-3h2.3c0,0.5,0.3,1.4,1.8,1.4c1,0,1.5-0.6,1.5-1c-0.1-0.7-0.9-0.7-1.9-0.9
				c-0.9-0.1-1.7-0.3-2.3-0.6c-0.7-0.4-1.2-1.2-1.2-2.1c0-1.5,1.4-2.8,3.6-2.8c2.2,0,3.5,1.1,3.7,2.8h-2.2c0-0.5-0.1-1.2-1.4-1.2
				c-0.9,0-1.4,0.2-1.5,0.8c0,0.9,1.8,0.8,3.2,1.2c1.3,0.3,2.2,1.2,2.2,2.4C103.9,33.5,102.2,34.4,100,34.4L100,34.4z"/>
			<polygon class="st0" points="58.4,20 66,15.7 69.9,22.5 59.9,22.5 58.4,20 			"/>
			<polygon class="st0" points="75.3,34.2 73.2,34.2 73.2,25.5 75.3,25.5 75.3,34.2 			"/>
			<path class="st0" d="M55,29.9c0,1.4,1.1,2.5,2.5,2.5c1.4,0,2.5-1.1,2.5-2.5c0-1.3-1.2-2.5-2.5-2.5C56.1,27.4,55,28.5,55,29.9
				L55,29.9z M57.4,34.4c-2.5,0-4.5-2-4.5-4.5c0-2.5,2-4.5,4.5-4.5c0.9,0,1.8,0.3,2.6,0.8v-0.7h2.1v8.7H60v-0.6
				C59.3,34.1,58.4,34.4,57.4,34.4L57.4,34.4z"/>
			<polygon class="st0" points="86.4,22.5 75.9,4.3 83.4,0 96.4,22.5 86.4,22.5 			"/>
			<path class="st0" d="M64.9,29.9c0,1.4,1.1,2.5,2.5,2.5c1.4,0,2.5-1.1,2.5-2.5c0-1.3-1.1-2.5-2.5-2.5
				C66.1,27.4,64.9,28.5,64.9,29.9L64.9,29.9z M67.4,34.4c-2.5,0-4.5-2-4.5-4.5c0-2.5,2-4.5,4.5-4.5c1,0,1.8,0.3,2.5,0.8v-3.6h2.2
				v11.6h-2.2v-0.6C69.2,34.1,68.4,34.4,67.4,34.4L67.4,34.4z"/>
			<polygon class="st0" points="67.2,12.2 74.8,7.9 83.2,22.5 75.3,22.5 75.3,24.7 73.2,24.7 73.2,22.5 67.2,12.2 			"/>
			<path class="st0" d="M88.2,29.9c0,1.4,1.1,2.5,2.5,2.5c1.4,0,2.5-1.1,2.5-2.5c0-1.3-1.1-2.5-2.5-2.5
				C89.3,27.4,88.2,28.5,88.2,29.9L88.2,29.9z M90.6,34.4c-2.5,0-4.5-2-4.5-4.5c0-2.5,2-4.5,4.5-4.5c0.9,0,1.8,0.3,2.5,0.8v-0.7h2.1
				v8.7h-2.1v-0.6C92.4,34.1,91.5,34.4,90.6,34.4L90.6,34.4z"/>
			<path class="st0" d="M78.3,29.9c0,1.4,1.1,2.5,2.5,2.5c1.4,0,2.5-1.1,2.5-2.5c0-1.3-1.1-2.5-2.5-2.5
				C79.4,27.4,78.3,28.5,78.3,29.9L78.3,29.9z M83.2,22.5h2.1v11.6h-2.1v-0.6c-0.7,0.5-1.6,0.8-2.6,0.8c-2.5,0-4.5-2-4.5-4.5
				c0-2.5,2-4.5,4.5-4.5c1,0,1.8,0.3,2.6,0.8V22.5L83.2,22.5z"/>
		</g>
	</g>
</g>
</svg>
