<?xml version="1.0" encoding="utf-8"?>
<!-- Generator: Adobe Illustrator 21.0.0, SVG Export Plug-In . SVG Version: 6.00 Build 0)  -->
<svg version="1.1" id="分離模式" xmlns="http://www.w3.org/2000/svg" xmlns:xlink="http://www.w3.org/1999/xlink" x="0px"
	 y="0px" viewBox="0 0 301.2 384.4" style="enable-background:new 0 0 301.2 384.4;" xml:space="preserve">
<style type="text/css">
	.st0{fill-rule:evenodd;clip-rule:evenodd;fill:#FFFFFF;}
	.st1{clip-path:url(#SVGID_58_);fill:#FFFFFF;}
	.st2{clip-path:url(#SVGID_60_);fill:#FFFFFF;}
	.st3{clip-path:url(#SVGID_62_);fill:#FFFFFF;}
	.st4{clip-path:url(#SVGID_64_);fill:#FFFFFF;}
	.st5{clip-path:url(#SVGID_66_);fill:#FFFFFF;}
	.st6{clip-path:url(#SVGID_68_);fill:#FFFFFF;}
	.st7{clip-path:url(#SVGID_70_);fill:#FFFFFF;}
	.st8{clip-path:url(#SVGID_72_);fill:#FFFFFF;}
	.st9{clip-path:url(#SVGID_74_);fill:#FFFFFF;}
	.st10{clip-path:url(#SVGID_76_);fill:#FFFFFF;}
	.st11{clip-path:url(#SVGID_78_);fill:#FFFFFF;}
	.st12{clip-path:url(#SVGID_80_);fill:#FFFFFF;}
	.st13{clip-path:url(#SVGID_82_);fill:#FFFFFF;}
	.st14{clip-path:url(#SVGID_84_);fill:#FFFFFF;}
	.st15{clip-path:url(#SVGID_86_);fill:#FFFFFF;}
	.st16{clip-path:url(#SVGID_88_);fill:#FFFFFF;}
	.st17{clip-path:url(#SVGID_90_);fill:#FFFFFF;}
	.st18{clip-path:url(#SVGID_92_);fill:#FFFFFF;}
	.st19{clip-path:url(#SVGID_94_);fill:#FFFFFF;}
	.st20{clip-path:url(#SVGID_96_);fill:#FFFFFF;}
	.st21{clip-path:url(#SVGID_98_);fill:#FFFFFF;}
	.st22{clip-path:url(#SVGID_100_);fill:#FFFFFF;}
	.st23{clip-path:url(#SVGID_102_);fill:#FFFFFF;}
	.st24{clip-path:url(#SVGID_104_);fill:#FFFFFF;}
	.st25{clip-path:url(#SVGID_106_);fill:#FFFFFF;}
	.st26{clip-path:url(#SVGID_108_);fill:#FFFFFF;}
	.st27{clip-path:url(#SVGID_110_);fill:#FFFFFF;}
	.st28{clip-path:url(#SVGID_112_);fill:#FFFFFF;}
</style>
<g>
	<g>
		<g>
			<g>
				<defs>
					<path id="SVGID_1_" d="M58.9,234.7c0,8.5,7.7,10.1,13,11.4c2.8,0.7,5,1.3,5,2.8c0,1.5-1.5,2.3-3.9,2.3c-3.6,0-4.7-1.9-4.8-3.8
						h-9.6c0.5,7.3,5.4,11.4,14.2,11.4c9.1,0,13.9-4.7,13.9-10.9c0-8-6.8-9.5-12.1-10.7c-3.3-0.7-6.1-1.4-6.1-3.5
						c0-1.2,1-2.2,3.4-2.2c3.8,0,4.4,2.2,4.5,3.9h9.5c-0.5-7.2-5.5-11.7-13.8-11.7C64.1,223.7,58.9,228,58.9,234.7"/>
				</defs>
				<clipPath id="SVGID_2_">
					<use xlink:href="#SVGID_1_"  style="overflow:visible;"/>
				</clipPath>
			</g>
			<g>
				<defs>
					<path id="SVGID_3_" d="M99,233.2h3.9c2.9,0,4.3,1.5,4.3,4c0,2.5-1.7,4-4.3,4H99V233.2z M89.3,224.6v33.5H99v-8.5h4.9
						c8.5,0,13.1-5.7,13.1-12.9c0-6.6-4.1-12.1-12-12.1H89.3z"/>
				</defs>
				<clipPath id="SVGID_4_">
					<use xlink:href="#SVGID_3_"  style="overflow:visible;"/>
				</clipPath>
			</g>
			<g>
				<defs>
					<path id="SVGID_5_" d="M128.3,241.4c0-4.5,3.6-8.4,8-8.4c4.4,0,8.1,3.9,8.1,8.4c0,4.6-3.6,8.4-8.1,8.4
						C131.9,249.8,128.3,246,128.3,241.4 M118.5,241.4c0,10,8.1,17.5,17.8,17.5c9.9,0,17.9-7.4,17.9-17.5c0-9.9-8-17.5-17.9-17.5
						C126.6,223.9,118.5,231.4,118.5,241.4"/>
				</defs>
				<clipPath id="SVGID_6_">
					<use xlink:href="#SVGID_5_"  style="overflow:visible;"/>
				</clipPath>
			</g>
			<g>
				<defs>
					<path id="SVGID_7_" d="M166.5,233.2h3.2c3.3,0,4.3,1.4,4.3,3.5c0,2-1.3,3.4-4.3,3.4h-3.2V233.2z M156.9,224.6v33.5h9.6v-10.3
						l7.5,10.3h12.2l-9.5-11.6c4.5-1.8,7.1-5.7,7.1-10.3c0-7.6-5-11.6-11.9-11.6H156.9z"/>
				</defs>
				<clipPath id="SVGID_8_">
					<use xlink:href="#SVGID_7_"  style="overflow:visible;"/>
				</clipPath>
			</g>
			<g>
				<defs>
					<polygon id="SVGID_9_" points="185,224.6 185,233.2 194.3,233.2 194.3,258.1 203.9,258.1 203.9,233.2 213.2,233.2 213.2,224.6 
											"/>
				</defs>
				<clipPath id="SVGID_10_">
					<use xlink:href="#SVGID_9_"  style="overflow:visible;"/>
				</clipPath>
			</g>
			<g>
				<defs>
					<path id="SVGID_11_" d="M215,234.7c0,8.5,7.7,10.1,13,11.4c2.8,0.7,5,1.3,5,2.8c0,1.5-1.5,2.3-3.9,2.3c-3.6,0-4.7-1.9-4.8-3.8
						h-9.6c0.5,7.3,5.4,11.4,14.2,11.4c9.1,0,13.9-4.7,13.9-10.9c0-8-6.8-9.5-12.1-10.7c-3.3-0.7-6.1-1.4-6.1-3.5
						c0-1.2,1-2.2,3.4-2.2c3.8,0,4.4,2.2,4.5,3.9h9.5c-0.5-7.2-5.5-11.7-13.8-11.7C220.2,223.7,215,228,215,234.7"/>
				</defs>
				<clipPath id="SVGID_12_">
					<use xlink:href="#SVGID_11_"  style="overflow:visible;"/>
				</clipPath>
			</g>
			<g>
				<defs>
					<path id="SVGID_13_" d="M77.7,287.1h8c3,0,4.5,1.7,4.5,4c0,2.1-1.5,3.9-4.3,3.9h-8.2V287.1z M77.7,268.8h6.1
						c2.7,0,3.8,1.8,3.8,3.8c0,1.9-1.3,3.6-3.9,3.6h-6V268.8z M63.7,257.6v48.6h24.2c10.6,0,16.3-5.5,16.3-13.8
						c0-6-3.1-10.3-9.6-12.1c4.7-2.1,6.7-5.8,6.7-9.9c0-6.6-4.5-12.8-15.7-12.8H63.7z"/>
				</defs>
				<clipPath id="SVGID_14_">
					<use xlink:href="#SVGID_13_"  style="overflow:visible;"/>
				</clipPath>
			</g>
			<g>
				<defs>
					<path id="SVGID_15_" d="M128.6,271.3l5,16.5h-10.1L128.6,271.3z M120.1,257.6l-16.3,48.6h14.1l2.2-7.1h17l2.2,7.1h14.9
						l-16.2-48.6H120.1z"/>
				</defs>
				<clipPath id="SVGID_16_">
					<use xlink:href="#SVGID_15_"  style="overflow:visible;"/>
				</clipPath>
			</g>
			<g>
				<defs>
					<path id="SVGID_17_" d="M154.7,272.2c0,12.3,11.1,14.6,18.9,16.5c4.1,1,7.2,1.9,7.2,4.1c0,2.1-2.2,3.3-5.7,3.3
						c-5.2,0-6.8-2.8-7-5.5h-14c0.7,10.6,7.9,16.5,20.6,16.5c13.2,0,20.2-6.8,20.2-15.8c0-11.6-9.9-13.8-17.6-15.5
						c-4.8-1.1-8.8-2.1-8.8-5.1c0-1.7,1.5-3.2,5-3.2c5.5,0,6.4,3.1,6.5,5.6h13.8c-0.8-10.4-7.9-17-20.1-17
						C162.2,256.2,154.7,262.5,154.7,272.2"/>
				</defs>
				<clipPath id="SVGID_18_">
					<use xlink:href="#SVGID_17_"  style="overflow:visible;"/>
				</clipPath>
			</g>
			<g>
				<defs>
					<polygon id="SVGID_19_" points="198.9,257.6 198.9,306.2 236.1,306.2 236.1,294.3 212.8,294.3 212.8,287.7 233.8,287.7 
						233.8,275.9 212.8,275.9 212.8,269.6 236,269.6 236,257.6 					"/>
				</defs>
				<clipPath id="SVGID_20_">
					<use xlink:href="#SVGID_19_"  style="overflow:visible;"/>
				</clipPath>
			</g>
			<g>
				<defs>
					<path id="SVGID_21_" d="M107.1,359.9l6.7,4c1.4-2.1,3-3.5,5.3-3.5c2,0,3.2,1.1,3.2,2.8c0,1.6-1.4,3.2-4,5.7l-9.5,8.6v6.4h22
						v-7.1h-10.4l1.7-1.5c6.9-6.1,8.6-8.8,8.6-13c0-5.2-4.1-9.3-11.3-9.3C113.4,353,109.5,356,107.1,359.9"/>
				</defs>
				<clipPath id="SVGID_22_">
					<use xlink:href="#SVGID_21_"  style="overflow:visible;"/>
				</clipPath>
			</g>
			<g>
				<defs>
					<path id="SVGID_23_" d="M140.9,373.1v-8.5c0-2.4,1.6-4,3.9-4c2.3,0,3.8,1.6,3.8,4v8.5c0,2.4-1.6,3.9-3.8,3.9
						C142.5,376.9,140.9,375.4,140.9,373.1 M132.9,364.3v8.9c0,7,4.7,11.1,11.9,11.1c7.2,0,11.9-4.1,11.9-11.1v-8.9
						c0-6.8-4.7-11.2-11.9-11.2C137.6,353.1,132.9,357.5,132.9,364.3"/>
				</defs>
				<clipPath id="SVGID_24_">
					<use xlink:href="#SVGID_23_"  style="overflow:visible;"/>
				</clipPath>
			</g>
			<g>
				<defs>
					<polygon id="SVGID_25_" points="157.6,353.5 157.6,361.4 161.1,361.4 161.1,383.9 169.6,383.9 169.6,353.5 					"/>
				</defs>
				<clipPath id="SVGID_26_">
					<use xlink:href="#SVGID_25_"  style="overflow:visible;"/>
				</clipPath>
			</g>
			<g>
				<defs>
					<polygon id="SVGID_27_" points="172.3,353.5 172.3,361.2 185.6,361.2 173.9,383.9 183.5,383.9 194.2,361.1 194.2,353.5 					
						"/>
				</defs>
				<clipPath id="SVGID_28_">
					<use xlink:href="#SVGID_27_"  style="overflow:visible;"/>
				</clipPath>
			</g>
			<g>
				<defs>
					<polygon id="SVGID_29_" points="67.9,312.7 67.9,375.8 102.2,375.8 102.2,372.1 71.5,372.1 71.5,312.7 					"/>
				</defs>
				<clipPath id="SVGID_30_">
					<use xlink:href="#SVGID_29_"  style="overflow:visible;"/>
				</clipPath>
			</g>
			<g>
				<defs>
					<polygon id="SVGID_31_" points="229.7,312.7 229.7,372.1 201.3,372.1 201.3,375.8 233.4,375.8 233.4,312.7 					"/>
				</defs>
				<clipPath id="SVGID_32_">
					<use xlink:href="#SVGID_31_"  style="overflow:visible;"/>
				</clipPath>
			</g>
			<g>
				<defs>
					<polygon id="SVGID_33_" points="107.6,327.2 107.6,330.4 104.7,330.4 104.7,327.2 102.3,327.2 102.3,335.6 104.7,335.6 
						104.7,332.6 107.6,332.6 107.6,335.6 110,335.6 110,327.2 					"/>
				</defs>
				<clipPath id="SVGID_34_">
					<use xlink:href="#SVGID_33_"  style="overflow:visible;"/>
				</clipPath>
			</g>
			<g>
				<defs>
					<polygon id="SVGID_35_" points="110.8,327.2 110.8,335.6 117.3,335.6 117.3,333.6 113.2,333.6 113.2,332.4 116.9,332.4 
						116.9,330.4 113.2,330.4 113.2,329.3 117.2,329.3 117.2,327.2 					"/>
				</defs>
				<clipPath id="SVGID_36_">
					<use xlink:href="#SVGID_35_"  style="overflow:visible;"/>
				</clipPath>
			</g>
			<g>
				<defs>
					<path id="SVGID_37_" d="M120.4,329.4h0.8c0.4,0,0.7,0.1,0.9,0.2c0.2,0.2,0.2,0.4,0.2,0.6c0,0.3-0.1,0.5-0.3,0.6
						c-0.2,0.2-0.4,0.2-0.8,0.2h-0.8V329.4z M118,327.2v8.4h2.4V333l1.9,2.6h3.1l-2.4-2.9c0.6-0.2,1-0.6,1.3-1
						c0.3-0.5,0.5-1,0.5-1.6c0-0.5-0.1-0.9-0.2-1.3c-0.1-0.4-0.4-0.7-0.6-0.9c-0.3-0.2-0.6-0.4-0.9-0.6c-0.4-0.1-0.8-0.2-1.2-0.2
						H118z"/>
				</defs>
				<clipPath id="SVGID_38_">
					<use xlink:href="#SVGID_37_"  style="overflow:visible;"/>
				</clipPath>
			</g>
			<g>
				<defs>
					<polygon id="SVGID_39_" points="125.6,327.2 125.6,335.6 132.1,335.6 132.1,333.6 128,333.6 128,332.4 131.7,332.4 
						131.7,330.4 128,330.4 128,329.3 132,329.3 132,327.2 					"/>
				</defs>
				<clipPath id="SVGID_40_">
					<use xlink:href="#SVGID_39_"  style="overflow:visible;"/>
				</clipPath>
			</g>
			<g>
				<defs>
					<polygon id="SVGID_41_" points="134.9,327.2 134.9,329.4 137.2,329.4 137.2,335.6 139.6,335.6 139.6,329.4 141.9,329.4 
						141.9,327.2 					"/>
				</defs>
				<clipPath id="SVGID_42_">
					<use xlink:href="#SVGID_41_"  style="overflow:visible;"/>
				</clipPath>
			</g>
			<g>
				<defs>
					<path id="SVGID_43_" d="M145.7,333.4c-0.2-0.1-0.5-0.3-0.6-0.5c-0.2-0.2-0.3-0.4-0.4-0.7c-0.1-0.3-0.2-0.5-0.2-0.8
						c0-0.3,0.1-0.6,0.2-0.8c0.1-0.3,0.3-0.5,0.4-0.7c0.2-0.2,0.4-0.3,0.6-0.5c0.2-0.1,0.5-0.2,0.8-0.2c0.3,0,0.5,0.1,0.8,0.2
						c0.2,0.1,0.5,0.3,0.6,0.5c0.2,0.2,0.3,0.4,0.4,0.7c0.1,0.3,0.2,0.5,0.2,0.8c0,0.3-0.1,0.6-0.2,0.8c-0.1,0.3-0.2,0.5-0.4,0.7
						c-0.2,0.2-0.4,0.3-0.6,0.5c-0.2,0.1-0.5,0.2-0.8,0.2C146.2,333.5,146,333.5,145.7,333.4 M144.8,327.4c-0.5,0.2-1,0.5-1.4,0.9
						c-0.4,0.4-0.7,0.9-1,1.4c-0.2,0.5-0.4,1.1-0.4,1.7c0,0.6,0.1,1.2,0.4,1.7s0.6,1,1,1.4c0.4,0.4,0.9,0.7,1.4,0.9
						c0.5,0.2,1.1,0.3,1.7,0.3c0.6,0,1.2-0.1,1.7-0.3c0.5-0.2,1-0.5,1.4-0.9c0.4-0.4,0.7-0.8,1-1.4c0.2-0.5,0.4-1.1,0.4-1.7
						c0-0.6-0.1-1.2-0.4-1.7c-0.2-0.5-0.6-1-1-1.4c-0.4-0.4-0.9-0.7-1.4-0.9c-0.5-0.2-1.1-0.3-1.7-0.3
						C145.9,327.1,145.3,327.2,144.8,327.4"/>
				</defs>
				<clipPath id="SVGID_44_">
					<use xlink:href="#SVGID_43_"  style="overflow:visible;"/>
				</clipPath>
			</g>
			<g>
				<defs>
					<path id="SVGID_45_" d="M156.6,327.4c-0.5,0.2-1,0.5-1.4,0.9c-0.4,0.4-0.7,0.8-1,1.4c-0.2,0.5-0.4,1.1-0.4,1.8
						c0,0.6,0.1,1.2,0.4,1.7c0.2,0.5,0.6,1,1,1.4c0.4,0.4,0.9,0.7,1.4,0.9c0.5,0.2,1.1,0.3,1.7,0.3c0.5,0,0.9-0.1,1.3-0.2
						c0.4-0.1,0.7-0.3,1.1-0.4c0.3-0.2,0.6-0.4,0.9-0.7c0.3-0.3,0.5-0.5,0.7-0.8l-1.8-1.3c-0.2,0.3-0.4,0.6-0.8,0.8
						c-0.3,0.2-0.7,0.3-1.2,0.3c-0.3,0-0.6,0-0.8-0.2c-0.3-0.1-0.5-0.2-0.7-0.4c-0.2-0.2-0.3-0.4-0.4-0.7c-0.1-0.3-0.2-0.5-0.2-0.9
						c0-0.3,0.1-0.6,0.2-0.8c0.1-0.3,0.3-0.5,0.4-0.7c0.2-0.2,0.4-0.3,0.6-0.4c0.2-0.1,0.5-0.2,0.8-0.2c0.4,0,0.8,0.1,1.1,0.3
						c0.3,0.2,0.6,0.5,0.8,0.9l1.9-1.3c-0.4-0.7-0.9-1.2-1.6-1.5c-0.6-0.4-1.4-0.6-2.3-0.6C157.7,327.1,157.1,327.2,156.6,327.4"/>
				</defs>
				<clipPath id="SVGID_46_">
					<use xlink:href="#SVGID_45_"  style="overflow:visible;"/>
				</clipPath>
			</g>
			<g>
				<defs>
					<path id="SVGID_47_" d="M165.1,329.4h0.8c0.4,0,0.7,0.1,0.9,0.2c0.2,0.2,0.2,0.4,0.2,0.6c0,0.3-0.1,0.5-0.3,0.6
						c-0.2,0.2-0.4,0.2-0.8,0.2h-0.8V329.4z M162.7,327.2v8.4h2.4V333l1.9,2.6h3.1l-2.4-2.9c0.6-0.2,1-0.6,1.3-1
						c0.3-0.5,0.5-1,0.5-1.6c0-0.5-0.1-0.9-0.2-1.3c-0.1-0.4-0.4-0.7-0.6-0.9c-0.3-0.2-0.6-0.4-0.9-0.6c-0.4-0.1-0.8-0.2-1.2-0.2
						H162.7z"/>
				</defs>
				<clipPath id="SVGID_48_">
					<use xlink:href="#SVGID_47_"  style="overflow:visible;"/>
				</clipPath>
			</g>
			<g>
				<defs>
					<polygon id="SVGID_49_" points="170.3,327.2 170.3,335.6 176.8,335.6 176.8,333.6 172.8,333.6 172.8,332.4 176.4,332.4 
						176.4,330.4 172.8,330.4 172.8,329.3 176.7,329.3 176.7,327.2 					"/>
				</defs>
				<clipPath id="SVGID_50_">
					<use xlink:href="#SVGID_49_"  style="overflow:visible;"/>
				</clipPath>
			</g>
			<g>
				<defs>
					<path id="SVGID_51_" d="M181.4,329.6l0.9,2.9h-1.8L181.4,329.6z M180,327.2l-2.8,8.4h2.4l0.4-1.2h2.9l0.4,1.2h2.6l-2.8-8.4H180
						z"/>
				</defs>
				<clipPath id="SVGID_52_">
					<use xlink:href="#SVGID_51_"  style="overflow:visible;"/>
				</clipPath>
			</g>
			<g>
				<defs>
					<polygon id="SVGID_53_" points="184.8,327.2 184.8,329.4 187.1,329.4 187.1,335.6 189.5,335.6 189.5,329.4 191.9,329.4 
						191.9,327.2 					"/>
				</defs>
				<clipPath id="SVGID_54_">
					<use xlink:href="#SVGID_53_"  style="overflow:visible;"/>
				</clipPath>
			</g>
			<g>
				<defs>
					<polygon id="SVGID_55_" points="192.5,327.2 192.5,335.6 198.9,335.6 198.9,333.6 194.9,333.6 194.9,332.4 198.5,332.4 
						198.5,330.4 194.9,330.4 194.9,329.3 198.9,329.3 198.9,327.2 					"/>
				</defs>
				<clipPath id="SVGID_56_">
					<use xlink:href="#SVGID_55_"  style="overflow:visible;"/>
				</clipPath>
			</g>
		</g>
	</g>
	<g>
		<g>
			<path class="st0" d="M288.2,171.6c-8.3-2.2-18.9-1.9-18.9-7.1c0.3-3.6,3.7-4.6,8.8-4.6c7.6,0,8.1,4.2,8.3,6.9h12.8
				c-0.8-10-9-16.8-21.8-16.8c-13.2,0-21.2,7.3-21.2,16.4c0,5.4,2.9,10.1,7.1,12.3c3.4,1.7,8,2.7,13.4,3.5
				c5.4,0.9,10.5,1.2,10.9,5.3c0,2.5-2.7,5.9-8.5,5.9c-8.6-0.1-10.7-4.9-10.7-8.1H255c0.5,10.3,9,17.6,23.2,17.6
				c12.7,0,23-4.9,23-17.6C301.2,178.5,296.2,173.6,288.2,171.6z"/>
			<polygon class="st0" points="32.5,118.1 41.1,133.2 100.5,133.2 77,92.6 			"/>
			<rect x="119.5" y="150.6" class="st0" width="12.7" height="51.3"/>
			<path class="st0" d="M41.8,154.7c-4.4-3.1-9.6-4.6-15.2-4.6C12,150.1,0,161.8,0,176.5c0,14.5,12,26.6,26.6,26.6
				c5.8,0,11-1.7,15.2-4.6v3.4h12.5v-51.3H41.8V154.7z M26.9,191c-8,0-14.7-6.6-14.7-14.5c0-7.9,6.8-14.7,14.7-14.7
				c8.1,0,14.9,6.8,14.9,14.7C41.8,184.5,35,191,26.9,191z"/>
			<polygon class="st0" points="257.1,133.2 180.1,0 135.5,25.7 197.5,133.2 			"/>
			<path class="st0" d="M100.5,154.7c-4.4-3.1-9.5-4.6-15-4.6c-14.7,0-26.7,11.7-26.7,26.4c0,14.5,12,26.6,26.7,26.6
				c5.6,0,10.7-1.7,15-4.6v3.4h12.7v-68.7h-12.7V154.7z M85.8,191c-8.1,0-14.9-6.6-14.9-14.5c0-7.9,6.8-14.7,14.9-14.7
				c8,0,14.7,6.8,14.7,14.7C100.5,184.5,93.8,191,85.8,191z"/>
			<path class="st0" d="M237.4,154.7c-4.2-3.1-9.5-4.6-15-4.6c-14.5,0-26.6,11.7-26.6,26.4c0,14.5,12,26.6,26.6,26.6
				c5.7,0,10.8-1.7,15-4.6v3.4h12.7v-51.3h-12.7V154.7z M222.9,191c-8,0-14.8-6.6-14.8-14.5c0-7.9,6.8-14.7,14.8-14.7
				c7.9,0,14.5,6.8,14.5,14.7C237.4,184.5,230.8,191,222.9,191z"/>
			<path class="st0" d="M179,133.2l-49.9-86.3L84.4,72.4l35,60.8v12.7h12.7v-12.7H179v21.5c-4.4-3.1-9.5-4.6-15.2-4.6
				c-14.5,0-26.6,11.7-26.6,26.4c0,14.5,12,26.6,26.6,26.6c5.8,0,11-1.7,15.2-4.6v3.4h12.5v-68.7H179L179,133.2z M164.2,191
				c-7.8,0-14.5-6.6-14.5-14.5c0-7.9,6.8-14.7,14.5-14.7c8.1,0,14.9,6.8,14.9,14.7C179,184.5,172.3,191,164.2,191z"/>
		</g>
		<g>
			<g>
				<defs>
					<path id="SVGID_57_" d="M58.9,234.7c0,8.5,7.7,10.1,13,11.4c2.8,0.7,5,1.3,5,2.8c0,1.5-1.5,2.3-3.9,2.3c-3.6,0-4.7-1.9-4.8-3.8
						h-9.6c0.5,7.3,5.4,11.4,14.2,11.4c9.1,0,13.9-4.7,13.9-10.9c0-8-6.8-9.5-12.1-10.7c-3.3-0.7-6.1-1.4-6.1-3.5
						c0-1.2,1-2.2,3.4-2.2c3.8,0,4.4,2.2,4.5,3.9h9.5c-0.5-7.2-5.5-11.7-13.8-11.7C64.1,223.7,58.9,228,58.9,234.7"/>
				</defs>
				<use xlink:href="#SVGID_57_"  style="overflow:visible;fill:#FFFFFF;"/>
				<clipPath id="SVGID_58_">
					<use xlink:href="#SVGID_57_"  style="overflow:visible;"/>
				</clipPath>
				<rect x="58.5" y="223.7" class="st1" width="28.2" height="35.1"/>
			</g>
			<g>
				<defs>
					<path id="SVGID_59_" d="M99,233.2h3.9c2.9,0,4.3,1.5,4.3,4c0,2.5-1.7,4-4.3,4H99V233.2z M89.3,224.6v33.5H99v-8.5h4.9
						c8.5,0,13.1-5.7,13.1-12.9c0-6.6-4.1-12.1-12-12.1H89.3z"/>
				</defs>
				<use xlink:href="#SVGID_59_"  style="overflow:visible;fill:#FFFFFF;"/>
				<clipPath id="SVGID_60_">
					<use xlink:href="#SVGID_59_"  style="overflow:visible;"/>
				</clipPath>
				<rect x="89.3" y="224.6" class="st2" width="27.7" height="33.5"/>
			</g>
			<g>
				<defs>
					<path id="SVGID_61_" d="M128.3,241.4c0-4.5,3.6-8.4,8-8.4c4.4,0,8.1,3.9,8.1,8.4c0,4.6-3.6,8.4-8.1,8.4
						C131.9,249.8,128.3,246,128.3,241.4 M118.5,241.4c0,10,8.1,17.5,17.8,17.5c9.9,0,17.9-7.4,17.9-17.5c0-9.9-8-17.5-17.9-17.5
						C126.6,223.9,118.5,231.4,118.5,241.4"/>
				</defs>
				<use xlink:href="#SVGID_61_"  style="overflow:visible;fill:#FFFFFF;"/>
				<clipPath id="SVGID_62_">
					<use xlink:href="#SVGID_61_"  style="overflow:visible;"/>
				</clipPath>
				<rect x="118.5" y="223.9" class="st3" width="35.7" height="34.9"/>
			</g>
			<g>
				<defs>
					<path id="SVGID_63_" d="M166.5,233.2h3.2c3.3,0,4.3,1.4,4.3,3.5c0,2-1.3,3.4-4.3,3.4h-3.2V233.2z M156.9,224.6v33.5h9.6v-10.3
						l7.5,10.3h12.2l-9.5-11.6c4.5-1.8,7.1-5.7,7.1-10.3c0-7.6-5-11.6-11.9-11.6H156.9z"/>
				</defs>
				<use xlink:href="#SVGID_63_"  style="overflow:visible;fill:#FFFFFF;"/>
				<clipPath id="SVGID_64_">
					<use xlink:href="#SVGID_63_"  style="overflow:visible;"/>
				</clipPath>
				<rect x="156.9" y="224.6" class="st4" width="29.4" height="33.5"/>
			</g>
			<g>
				<defs>
					<polygon id="SVGID_65_" points="185,224.6 185,233.2 194.3,233.2 194.3,258.1 203.9,258.1 203.9,233.2 213.2,233.2 
						213.2,224.6 					"/>
				</defs>
				<use xlink:href="#SVGID_65_"  style="overflow:visible;fill:#FFFFFF;"/>
				<clipPath id="SVGID_66_">
					<use xlink:href="#SVGID_65_"  style="overflow:visible;"/>
				</clipPath>
				<rect x="185" y="224.6" class="st5" width="28.2" height="33.5"/>
			</g>
			<g>
				<defs>
					<path id="SVGID_67_" d="M215,234.7c0,8.5,7.7,10.1,13,11.4c2.8,0.7,5,1.3,5,2.8c0,1.5-1.5,2.3-3.9,2.3c-3.6,0-4.7-1.9-4.8-3.8
						h-9.6c0.5,7.3,5.4,11.4,14.2,11.4c9.1,0,13.9-4.7,13.9-10.9c0-8-6.8-9.5-12.1-10.7c-3.3-0.7-6.1-1.4-6.1-3.5
						c0-1.2,1-2.2,3.4-2.2c3.8,0,4.4,2.2,4.5,3.9h9.5c-0.5-7.2-5.5-11.7-13.8-11.7C220.2,223.7,215,228,215,234.7"/>
				</defs>
				<use xlink:href="#SVGID_67_"  style="overflow:visible;fill:#FFFFFF;"/>
				<clipPath id="SVGID_68_">
					<use xlink:href="#SVGID_67_"  style="overflow:visible;"/>
				</clipPath>
				<rect x="214.6" y="223.7" class="st6" width="28.2" height="35.1"/>
			</g>
			<g>
				<defs>
					<path id="SVGID_69_" d="M77.7,287.1h8c3,0,4.5,1.7,4.5,4c0,2.1-1.5,3.9-4.3,3.9h-8.2V287.1z M77.7,268.8h6.1
						c2.7,0,3.8,1.8,3.8,3.8c0,1.9-1.3,3.6-3.9,3.6h-6V268.8z M63.7,257.6v48.6h24.2c10.6,0,16.3-5.5,16.3-13.8
						c0-6-3.1-10.3-9.6-12.1c4.7-2.1,6.7-5.8,6.7-9.9c0-6.6-4.5-12.8-15.7-12.8H63.7z"/>
				</defs>
				<use xlink:href="#SVGID_69_"  style="overflow:visible;fill:#FFFFFF;"/>
				<clipPath id="SVGID_70_">
					<use xlink:href="#SVGID_69_"  style="overflow:visible;"/>
				</clipPath>
				<rect x="63.7" y="257.6" class="st7" width="40.5" height="48.6"/>
			</g>
			<g>
				<defs>
					<path id="SVGID_71_" d="M128.6,271.3l5,16.5h-10.1L128.6,271.3z M120.1,257.6l-16.3,48.6h14.1l2.2-7.1h17l2.2,7.1h14.9
						l-16.2-48.6H120.1z"/>
				</defs>
				<use xlink:href="#SVGID_71_"  style="overflow:visible;fill:#FFFFFF;"/>
				<clipPath id="SVGID_72_">
					<use xlink:href="#SVGID_71_"  style="overflow:visible;"/>
				</clipPath>
				<rect x="103.7" y="257.6" class="st8" width="50.4" height="48.6"/>
			</g>
			<g>
				<defs>
					<path id="SVGID_73_" d="M154.7,272.2c0,12.3,11.1,14.6,18.9,16.5c4.1,1,7.2,1.9,7.2,4.1c0,2.1-2.2,3.3-5.7,3.3
						c-5.2,0-6.8-2.8-7-5.5h-14c0.7,10.6,7.9,16.5,20.6,16.5c13.2,0,20.2-6.8,20.2-15.8c0-11.6-9.9-13.8-17.6-15.5
						c-4.8-1.1-8.8-2.1-8.8-5.1c0-1.7,1.5-3.2,5-3.2c5.5,0,6.4,3.1,6.5,5.6h13.8c-0.8-10.4-7.9-17-20.1-17
						C162.2,256.2,154.7,262.5,154.7,272.2"/>
				</defs>
				<use xlink:href="#SVGID_73_"  style="overflow:visible;fill:#FFFFFF;"/>
				<clipPath id="SVGID_74_">
					<use xlink:href="#SVGID_73_"  style="overflow:visible;"/>
				</clipPath>
				<rect x="154.1" y="256.2" class="st9" width="40.9" height="50.9"/>
			</g>
			<g>
				<defs>
					<polygon id="SVGID_75_" points="198.9,257.6 198.9,306.2 236.1,306.2 236.1,294.3 212.8,294.3 212.8,287.7 233.8,287.7 
						233.8,275.9 212.8,275.9 212.8,269.6 236,269.6 236,257.6 					"/>
				</defs>
				<use xlink:href="#SVGID_75_"  style="overflow:visible;fill:#FFFFFF;"/>
				<clipPath id="SVGID_76_">
					<use xlink:href="#SVGID_75_"  style="overflow:visible;"/>
				</clipPath>
				<rect x="198.9" y="257.6" class="st10" width="37.2" height="48.6"/>
			</g>
			<g>
				<defs>
					<path id="SVGID_77_" d="M107.1,359.9l6.7,4c1.4-2.1,3-3.5,5.3-3.5c2,0,3.2,1.1,3.2,2.8c0,1.6-1.4,3.2-4,5.7l-9.5,8.6v6.4h22
						v-7.1h-10.4l1.7-1.5c6.9-6.1,8.6-8.8,8.6-13c0-5.2-4.1-9.3-11.3-9.3C113.4,353,109.5,356,107.1,359.9"/>
				</defs>
				<use xlink:href="#SVGID_77_"  style="overflow:visible;fill:#FFFFFF;"/>
				<clipPath id="SVGID_78_">
					<use xlink:href="#SVGID_77_"  style="overflow:visible;"/>
				</clipPath>
				<rect x="107.1" y="353" class="st11" width="23.6" height="30.9"/>
			</g>
			<g>
				<defs>
					<path id="SVGID_79_" d="M140.9,373.1v-8.5c0-2.4,1.6-4,3.9-4c2.3,0,3.8,1.6,3.8,4v8.5c0,2.4-1.6,3.9-3.8,3.9
						C142.5,376.9,140.9,375.4,140.9,373.1 M132.9,364.3v8.9c0,7,4.7,11.1,11.9,11.1c7.2,0,11.9-4.1,11.9-11.1v-8.9
						c0-6.8-4.7-11.2-11.9-11.2C137.6,353.1,132.9,357.5,132.9,364.3"/>
				</defs>
				<use xlink:href="#SVGID_79_"  style="overflow:visible;fill:#FFFFFF;"/>
				<clipPath id="SVGID_80_">
					<use xlink:href="#SVGID_79_"  style="overflow:visible;"/>
				</clipPath>
				<rect x="132.9" y="353.1" class="st12" width="23.8" height="31.2"/>
			</g>
			<g>
				<defs>
					<polygon id="SVGID_81_" points="157.6,353.5 157.6,361.4 161.1,361.4 161.1,383.9 169.6,383.9 169.6,353.5 					"/>
				</defs>
				<use xlink:href="#SVGID_81_"  style="overflow:visible;fill:#FFFFFF;"/>
				<clipPath id="SVGID_82_">
					<use xlink:href="#SVGID_81_"  style="overflow:visible;"/>
				</clipPath>
				<rect x="157.6" y="353.5" class="st13" width="12" height="30.4"/>
			</g>
			<g>
				<defs>
					<polygon id="SVGID_83_" points="172.3,353.5 172.3,361.2 185.6,361.2 173.9,383.9 183.5,383.9 194.2,361.1 194.2,353.5 					
						"/>
				</defs>
				<use xlink:href="#SVGID_83_"  style="overflow:visible;fill:#FFFFFF;"/>
				<clipPath id="SVGID_84_">
					<use xlink:href="#SVGID_83_"  style="overflow:visible;"/>
				</clipPath>
				<rect x="172.3" y="353.5" class="st14" width="21.9" height="30.4"/>
			</g>
			<g>
				<defs>
					<polygon id="SVGID_85_" points="67.9,312.7 67.9,375.8 102.2,375.8 102.2,372.1 71.5,372.1 71.5,312.7 					"/>
				</defs>
				<use xlink:href="#SVGID_85_"  style="overflow:visible;fill:#FFFFFF;"/>
				<clipPath id="SVGID_86_">
					<use xlink:href="#SVGID_85_"  style="overflow:visible;"/>
				</clipPath>
				<rect x="67.9" y="312.7" class="st15" width="34.4" height="63.1"/>
			</g>
			<g>
				<defs>
					<polygon id="SVGID_87_" points="229.7,312.7 229.7,372.1 201.3,372.1 201.3,375.8 233.4,375.8 233.4,312.7 					"/>
				</defs>
				<use xlink:href="#SVGID_87_"  style="overflow:visible;fill:#FFFFFF;"/>
				<clipPath id="SVGID_88_">
					<use xlink:href="#SVGID_87_"  style="overflow:visible;"/>
				</clipPath>
				<rect x="201.3" y="312.7" class="st16" width="32" height="63.1"/>
			</g>
			<g>
				<defs>
					<polygon id="SVGID_89_" points="107.6,327.2 107.6,330.4 104.7,330.4 104.7,327.2 102.3,327.2 102.3,335.6 104.7,335.6 
						104.7,332.6 107.6,332.6 107.6,335.6 110,335.6 110,327.2 					"/>
				</defs>
				<use xlink:href="#SVGID_89_"  style="overflow:visible;fill:#FFFFFF;"/>
				<clipPath id="SVGID_90_">
					<use xlink:href="#SVGID_89_"  style="overflow:visible;"/>
				</clipPath>
				<rect x="102.3" y="327.2" class="st17" width="7.6" height="8.4"/>
			</g>
			<g>
				<defs>
					<polygon id="SVGID_91_" points="110.8,327.2 110.8,335.6 117.3,335.6 117.3,333.6 113.2,333.6 113.2,332.4 116.9,332.4 
						116.9,330.4 113.2,330.4 113.2,329.3 117.2,329.3 117.2,327.2 					"/>
				</defs>
				<use xlink:href="#SVGID_91_"  style="overflow:visible;fill:#FFFFFF;"/>
				<clipPath id="SVGID_92_">
					<use xlink:href="#SVGID_91_"  style="overflow:visible;"/>
				</clipPath>
				<rect x="110.8" y="327.2" class="st18" width="6.4" height="8.4"/>
			</g>
			<g>
				<defs>
					<path id="SVGID_93_" d="M120.4,329.4h0.8c0.4,0,0.7,0.1,0.9,0.2c0.2,0.2,0.2,0.4,0.2,0.6c0,0.3-0.1,0.5-0.3,0.6
						c-0.2,0.2-0.4,0.2-0.8,0.2h-0.8V329.4z M118,327.2v8.4h2.4V333l1.9,2.6h3.1l-2.4-2.9c0.6-0.2,1-0.6,1.3-1
						c0.3-0.5,0.5-1,0.5-1.6c0-0.5-0.1-0.9-0.2-1.3c-0.1-0.4-0.4-0.7-0.6-0.9c-0.3-0.2-0.6-0.4-0.9-0.6c-0.4-0.1-0.8-0.2-1.2-0.2
						H118z"/>
				</defs>
				<use xlink:href="#SVGID_93_"  style="overflow:visible;fill:#FFFFFF;"/>
				<clipPath id="SVGID_94_">
					<use xlink:href="#SVGID_93_"  style="overflow:visible;"/>
				</clipPath>
				<rect x="118" y="327.2" class="st19" width="7.4" height="8.4"/>
			</g>
			<g>
				<defs>
					<polygon id="SVGID_95_" points="125.6,327.2 125.6,335.6 132.1,335.6 132.1,333.6 128,333.6 128,332.4 131.7,332.4 
						131.7,330.4 128,330.4 128,329.3 132,329.3 132,327.2 					"/>
				</defs>
				<use xlink:href="#SVGID_95_"  style="overflow:visible;fill:#FFFFFF;"/>
				<clipPath id="SVGID_96_">
					<use xlink:href="#SVGID_95_"  style="overflow:visible;"/>
				</clipPath>
				<rect x="125.6" y="327.2" class="st20" width="6.4" height="8.4"/>
			</g>
			<g>
				<defs>
					<polygon id="SVGID_97_" points="134.9,327.2 134.9,329.4 137.2,329.4 137.2,335.6 139.6,335.6 139.6,329.4 141.9,329.4 
						141.9,327.2 					"/>
				</defs>
				<use xlink:href="#SVGID_97_"  style="overflow:visible;fill:#FFFFFF;"/>
				<clipPath id="SVGID_98_">
					<use xlink:href="#SVGID_97_"  style="overflow:visible;"/>
				</clipPath>
				<rect x="134.9" y="327.2" class="st21" width="7.1" height="8.4"/>
			</g>
			<g>
				<defs>
					<path id="SVGID_99_" d="M145.7,333.4c-0.2-0.1-0.5-0.3-0.6-0.5c-0.2-0.2-0.3-0.4-0.4-0.7c-0.1-0.3-0.2-0.5-0.2-0.8
						c0-0.3,0.1-0.6,0.2-0.8c0.1-0.3,0.3-0.5,0.4-0.7c0.2-0.2,0.4-0.3,0.6-0.5c0.2-0.1,0.5-0.2,0.8-0.2c0.3,0,0.5,0.1,0.8,0.2
						c0.2,0.1,0.5,0.3,0.6,0.5c0.2,0.2,0.3,0.4,0.4,0.7c0.1,0.3,0.2,0.5,0.2,0.8c0,0.3-0.1,0.6-0.2,0.8c-0.1,0.3-0.2,0.5-0.4,0.7
						c-0.2,0.2-0.4,0.3-0.6,0.5c-0.2,0.1-0.5,0.2-0.8,0.2C146.2,333.5,146,333.5,145.7,333.4 M144.8,327.4c-0.5,0.2-1,0.5-1.4,0.9
						c-0.4,0.4-0.7,0.9-1,1.4c-0.2,0.5-0.4,1.1-0.4,1.7c0,0.6,0.1,1.2,0.4,1.7s0.6,1,1,1.4c0.4,0.4,0.9,0.7,1.4,0.9
						c0.5,0.2,1.1,0.3,1.7,0.3c0.6,0,1.2-0.1,1.7-0.3c0.5-0.2,1-0.5,1.4-0.9c0.4-0.4,0.7-0.8,1-1.4c0.2-0.5,0.4-1.1,0.4-1.7
						c0-0.6-0.1-1.2-0.4-1.7c-0.2-0.5-0.6-1-1-1.4c-0.4-0.4-0.9-0.7-1.4-0.9c-0.5-0.2-1.1-0.3-1.7-0.3
						C145.9,327.1,145.3,327.2,144.8,327.4"/>
				</defs>
				<use xlink:href="#SVGID_99_"  style="overflow:visible;fill:#FFFFFF;"/>
				<clipPath id="SVGID_100_">
					<use xlink:href="#SVGID_99_"  style="overflow:visible;"/>
				</clipPath>
				<rect x="142" y="327.1" class="st22" width="9" height="8.7"/>
			</g>
			<g>
				<defs>
					<path id="SVGID_101_" d="M156.6,327.4c-0.5,0.2-1,0.5-1.4,0.9c-0.4,0.4-0.7,0.8-1,1.4c-0.2,0.5-0.4,1.1-0.4,1.8
						c0,0.6,0.1,1.2,0.4,1.7c0.2,0.5,0.6,1,1,1.4c0.4,0.4,0.9,0.7,1.4,0.9c0.5,0.2,1.1,0.3,1.7,0.3c0.5,0,0.9-0.1,1.3-0.2
						c0.4-0.1,0.7-0.3,1.1-0.4c0.3-0.2,0.6-0.4,0.9-0.7c0.3-0.3,0.5-0.5,0.7-0.8l-1.8-1.3c-0.2,0.3-0.4,0.6-0.8,0.8
						c-0.3,0.2-0.7,0.3-1.2,0.3c-0.3,0-0.6,0-0.8-0.2c-0.3-0.1-0.5-0.2-0.7-0.4c-0.2-0.2-0.3-0.4-0.4-0.7c-0.1-0.3-0.2-0.5-0.2-0.9
						c0-0.3,0.1-0.6,0.2-0.8c0.1-0.3,0.3-0.5,0.4-0.7c0.2-0.2,0.4-0.3,0.6-0.4c0.2-0.1,0.5-0.2,0.8-0.2c0.4,0,0.8,0.1,1.1,0.3
						c0.3,0.2,0.6,0.5,0.8,0.9l1.9-1.3c-0.4-0.7-0.9-1.2-1.6-1.5c-0.6-0.4-1.4-0.6-2.3-0.6C157.7,327.1,157.1,327.2,156.6,327.4"/>
				</defs>
				<use xlink:href="#SVGID_101_"  style="overflow:visible;fill:#FFFFFF;"/>
				<clipPath id="SVGID_102_">
					<use xlink:href="#SVGID_101_"  style="overflow:visible;"/>
				</clipPath>
				<rect x="153.8" y="327.1" class="st23" width="8.3" height="8.7"/>
			</g>
			<g>
				<defs>
					<path id="SVGID_103_" d="M165.1,329.4h0.8c0.4,0,0.7,0.1,0.9,0.2c0.2,0.2,0.2,0.4,0.2,0.6c0,0.3-0.1,0.5-0.3,0.6
						c-0.2,0.2-0.4,0.2-0.8,0.2h-0.8V329.4z M162.7,327.2v8.4h2.4V333l1.9,2.6h3.1l-2.4-2.9c0.6-0.2,1-0.6,1.3-1
						c0.3-0.5,0.5-1,0.5-1.6c0-0.5-0.1-0.9-0.2-1.3c-0.1-0.4-0.4-0.7-0.6-0.9c-0.3-0.2-0.6-0.4-0.9-0.6c-0.4-0.1-0.8-0.2-1.2-0.2
						H162.7z"/>
				</defs>
				<use xlink:href="#SVGID_103_"  style="overflow:visible;fill:#FFFFFF;"/>
				<clipPath id="SVGID_104_">
					<use xlink:href="#SVGID_103_"  style="overflow:visible;"/>
				</clipPath>
				<rect x="162.7" y="327.2" class="st24" width="7.4" height="8.4"/>
			</g>
			<g>
				<defs>
					<polygon id="SVGID_105_" points="170.3,327.2 170.3,335.6 176.8,335.6 176.8,333.6 172.8,333.6 172.8,332.4 176.4,332.4 
						176.4,330.4 172.8,330.4 172.8,329.3 176.7,329.3 176.7,327.2 					"/>
				</defs>
				<use xlink:href="#SVGID_105_"  style="overflow:visible;fill:#FFFFFF;"/>
				<clipPath id="SVGID_106_">
					<use xlink:href="#SVGID_105_"  style="overflow:visible;"/>
				</clipPath>
				<rect x="170.3" y="327.2" class="st25" width="6.4" height="8.4"/>
			</g>
			<g>
				<defs>
					<path id="SVGID_107_" d="M181.4,329.6l0.9,2.9h-1.8L181.4,329.6z M180,327.2l-2.8,8.4h2.4l0.4-1.2h2.9l0.4,1.2h2.6l-2.8-8.4
						H180z"/>
				</defs>
				<use xlink:href="#SVGID_107_"  style="overflow:visible;fill:#FFFFFF;"/>
				<clipPath id="SVGID_108_">
					<use xlink:href="#SVGID_107_"  style="overflow:visible;"/>
				</clipPath>
				<rect x="177.1" y="327.2" class="st26" width="8.7" height="8.4"/>
			</g>
			<g>
				<defs>
					<polygon id="SVGID_109_" points="184.8,327.2 184.8,329.4 187.1,329.4 187.1,335.6 189.5,335.6 189.5,329.4 191.9,329.4 
						191.9,327.2 					"/>
				</defs>
				<use xlink:href="#SVGID_109_"  style="overflow:visible;fill:#FFFFFF;"/>
				<clipPath id="SVGID_110_">
					<use xlink:href="#SVGID_109_"  style="overflow:visible;"/>
				</clipPath>
				<rect x="184.8" y="327.2" class="st27" width="7.1" height="8.4"/>
			</g>
			<g>
				<defs>
					<polygon id="SVGID_111_" points="192.5,327.2 192.5,335.6 198.9,335.6 198.9,333.6 194.9,333.6 194.9,332.4 198.5,332.4 
						198.5,330.4 194.9,330.4 194.9,329.3 198.9,329.3 198.9,327.2 					"/>
				</defs>
				<use xlink:href="#SVGID_111_"  style="overflow:visible;fill:#FFFFFF;"/>
				<clipPath id="SVGID_112_">
					<use xlink:href="#SVGID_111_"  style="overflow:visible;"/>
				</clipPath>
				<rect x="192.5" y="327.2" class="st28" width="6.4" height="8.4"/>
			</g>
		</g>
	</g>
	<g>
		<g>
			<g>
				<defs>
					<path id="SVGID_113_" d="M58.9,234.7c0,8.5,7.7,10.1,13,11.4c2.8,0.7,5,1.3,5,2.8c0,1.5-1.5,2.3-3.9,2.3
						c-3.6,0-4.7-1.9-4.8-3.8h-9.6c0.5,7.3,5.4,11.4,14.2,11.4c9.1,0,13.9-4.7,13.9-10.9c0-8-6.8-9.5-12.1-10.7
						c-3.3-0.7-6.1-1.4-6.1-3.5c0-1.2,1-2.2,3.4-2.2c3.8,0,4.4,2.2,4.5,3.9h9.5c-0.5-7.2-5.5-11.7-13.8-11.7
						C64.1,223.7,58.9,228,58.9,234.7"/>
				</defs>
				<clipPath id="SVGID_114_">
					<use xlink:href="#SVGID_113_"  style="overflow:visible;"/>
				</clipPath>
			</g>
			<g>
				<defs>
					<path id="SVGID_115_" d="M99,233.2h3.9c2.9,0,4.3,1.5,4.3,4c0,2.5-1.7,4-4.3,4H99V233.2z M89.3,224.6v33.5H99v-8.5h4.9
						c8.5,0,13.1-5.7,13.1-12.9c0-6.6-4.1-12.1-12-12.1H89.3z"/>
				</defs>
				<clipPath id="SVGID_116_">
					<use xlink:href="#SVGID_115_"  style="overflow:visible;"/>
				</clipPath>
			</g>
			<g>
				<defs>
					<path id="SVGID_117_" d="M128.3,241.4c0-4.5,3.6-8.4,8-8.4c4.4,0,8.1,3.9,8.1,8.4c0,4.6-3.6,8.4-8.1,8.4
						C131.9,249.8,128.3,246,128.3,241.4 M118.5,241.4c0,10,8.1,17.5,17.8,17.5c9.9,0,17.9-7.4,17.9-17.5c0-9.9-8-17.5-17.9-17.5
						C126.6,223.9,118.5,231.4,118.5,241.4"/>
				</defs>
				<clipPath id="SVGID_118_">
					<use xlink:href="#SVGID_117_"  style="overflow:visible;"/>
				</clipPath>
			</g>
			<g>
				<defs>
					<path id="SVGID_119_" d="M166.5,233.2h3.2c3.3,0,4.3,1.4,4.3,3.5c0,2-1.3,3.4-4.3,3.4h-3.2V233.2z M156.9,224.6v33.5h9.6v-10.3
						l7.5,10.3h12.2l-9.5-11.6c4.5-1.8,7.1-5.7,7.1-10.3c0-7.6-5-11.6-11.9-11.6H156.9z"/>
				</defs>
				<clipPath id="SVGID_120_">
					<use xlink:href="#SVGID_119_"  style="overflow:visible;"/>
				</clipPath>
			</g>
			<g>
				<defs>
					<polygon id="SVGID_121_" points="185,224.6 185,233.2 194.3,233.2 194.3,258.1 203.9,258.1 203.9,233.2 213.2,233.2 
						213.2,224.6 					"/>
				</defs>
				<clipPath id="SVGID_122_">
					<use xlink:href="#SVGID_121_"  style="overflow:visible;"/>
				</clipPath>
			</g>
			<g>
				<defs>
					<path id="SVGID_123_" d="M215,234.7c0,8.5,7.7,10.1,13,11.4c2.8,0.7,5,1.3,5,2.8c0,1.5-1.5,2.3-3.9,2.3c-3.6,0-4.7-1.9-4.8-3.8
						h-9.6c0.5,7.3,5.4,11.4,14.2,11.4c9.1,0,13.9-4.7,13.9-10.9c0-8-6.8-9.5-12.1-10.7c-3.3-0.7-6.1-1.4-6.1-3.5
						c0-1.2,1-2.2,3.4-2.2c3.8,0,4.4,2.2,4.5,3.9h9.5c-0.5-7.2-5.5-11.7-13.8-11.7C220.2,223.7,215,228,215,234.7"/>
				</defs>
				<clipPath id="SVGID_124_">
					<use xlink:href="#SVGID_123_"  style="overflow:visible;"/>
				</clipPath>
			</g>
			<g>
				<defs>
					<path id="SVGID_125_" d="M77.7,287.1h8c3,0,4.5,1.7,4.5,4c0,2.1-1.5,3.9-4.3,3.9h-8.2V287.1z M77.7,268.8h6.1
						c2.7,0,3.8,1.8,3.8,3.8c0,1.9-1.3,3.6-3.9,3.6h-6V268.8z M63.7,257.6v48.6h24.2c10.6,0,16.3-5.5,16.3-13.8
						c0-6-3.1-10.3-9.6-12.1c4.7-2.1,6.7-5.8,6.7-9.9c0-6.6-4.5-12.8-15.7-12.8H63.7z"/>
				</defs>
				<clipPath id="SVGID_126_">
					<use xlink:href="#SVGID_125_"  style="overflow:visible;"/>
				</clipPath>
			</g>
			<g>
				<defs>
					<path id="SVGID_127_" d="M128.6,271.3l5,16.5h-10.1L128.6,271.3z M120.1,257.6l-16.3,48.6h14.1l2.2-7.1h17l2.2,7.1h14.9
						l-16.2-48.6H120.1z"/>
				</defs>
				<clipPath id="SVGID_128_">
					<use xlink:href="#SVGID_127_"  style="overflow:visible;"/>
				</clipPath>
			</g>
			<g>
				<defs>
					<path id="SVGID_129_" d="M154.7,272.2c0,12.3,11.1,14.6,18.9,16.5c4.1,1,7.2,1.9,7.2,4.1c0,2.1-2.2,3.3-5.7,3.3
						c-5.2,0-6.8-2.8-7-5.5h-14c0.7,10.6,7.9,16.5,20.6,16.5c13.2,0,20.2-6.8,20.2-15.8c0-11.6-9.9-13.8-17.6-15.5
						c-4.8-1.1-8.8-2.1-8.8-5.1c0-1.7,1.5-3.2,5-3.2c5.5,0,6.4,3.1,6.5,5.6h13.8c-0.8-10.4-7.9-17-20.1-17
						C162.2,256.2,154.7,262.5,154.7,272.2"/>
				</defs>
				<clipPath id="SVGID_130_">
					<use xlink:href="#SVGID_129_"  style="overflow:visible;"/>
				</clipPath>
			</g>
			<g>
				<defs>
					<polygon id="SVGID_131_" points="198.9,257.6 198.9,306.2 236.1,306.2 236.1,294.3 212.8,294.3 212.8,287.7 233.8,287.7 
						233.8,275.9 212.8,275.9 212.8,269.6 236,269.6 236,257.6 					"/>
				</defs>
				<clipPath id="SVGID_132_">
					<use xlink:href="#SVGID_131_"  style="overflow:visible;"/>
				</clipPath>
			</g>
			<g>
				<defs>
					<path id="SVGID_133_" d="M107.1,359.9l6.7,4c1.4-2.1,3-3.5,5.3-3.5c2,0,3.2,1.1,3.2,2.8c0,1.6-1.4,3.2-4,5.7l-9.5,8.6v6.4h22
						v-7.1h-10.4l1.7-1.5c6.9-6.1,8.6-8.8,8.6-13c0-5.2-4.1-9.3-11.3-9.3C113.4,353,109.5,356,107.1,359.9"/>
				</defs>
				<clipPath id="SVGID_134_">
					<use xlink:href="#SVGID_133_"  style="overflow:visible;"/>
				</clipPath>
			</g>
			<g>
				<defs>
					<path id="SVGID_135_" d="M140.9,373.1v-8.5c0-2.4,1.6-4,3.9-4c2.3,0,3.8,1.6,3.8,4v8.5c0,2.4-1.6,3.9-3.8,3.9
						C142.5,376.9,140.9,375.4,140.9,373.1 M132.9,364.3v8.9c0,7,4.7,11.1,11.9,11.1c7.2,0,11.9-4.1,11.9-11.1v-8.9
						c0-6.8-4.7-11.2-11.9-11.2C137.6,353.1,132.9,357.5,132.9,364.3"/>
				</defs>
				<clipPath id="SVGID_136_">
					<use xlink:href="#SVGID_135_"  style="overflow:visible;"/>
				</clipPath>
			</g>
			<g>
				<defs>
					<polygon id="SVGID_137_" points="157.6,353.5 157.6,361.4 161.1,361.4 161.1,383.9 169.6,383.9 169.6,353.5 					"/>
				</defs>
				<clipPath id="SVGID_138_">
					<use xlink:href="#SVGID_137_"  style="overflow:visible;"/>
				</clipPath>
			</g>
			<g>
				<defs>
					<polygon id="SVGID_139_" points="172.3,353.5 172.3,361.2 185.6,361.2 173.9,383.9 183.5,383.9 194.2,361.1 194.2,353.5 					
						"/>
				</defs>
				<clipPath id="SVGID_140_">
					<use xlink:href="#SVGID_139_"  style="overflow:visible;"/>
				</clipPath>
			</g>
			<g>
				<defs>
					<polygon id="SVGID_141_" points="67.9,312.7 67.9,375.8 102.2,375.8 102.2,372.1 71.5,372.1 71.5,312.7 					"/>
				</defs>
				<clipPath id="SVGID_142_">
					<use xlink:href="#SVGID_141_"  style="overflow:visible;"/>
				</clipPath>
			</g>
			<g>
				<defs>
					<polygon id="SVGID_143_" points="229.7,312.7 229.7,372.1 201.3,372.1 201.3,375.8 233.4,375.8 233.4,312.7 					"/>
				</defs>
				<clipPath id="SVGID_144_">
					<use xlink:href="#SVGID_143_"  style="overflow:visible;"/>
				</clipPath>
			</g>
			<g>
				<defs>
					<polygon id="SVGID_145_" points="107.6,327.2 107.6,330.4 104.7,330.4 104.7,327.2 102.3,327.2 102.3,335.6 104.7,335.6 
						104.7,332.6 107.6,332.6 107.6,335.6 110,335.6 110,327.2 					"/>
				</defs>
				<clipPath id="SVGID_146_">
					<use xlink:href="#SVGID_145_"  style="overflow:visible;"/>
				</clipPath>
			</g>
			<g>
				<defs>
					<polygon id="SVGID_147_" points="110.8,327.2 110.8,335.6 117.3,335.6 117.3,333.6 113.2,333.6 113.2,332.4 116.9,332.4 
						116.9,330.4 113.2,330.4 113.2,329.3 117.2,329.3 117.2,327.2 					"/>
				</defs>
				<clipPath id="SVGID_148_">
					<use xlink:href="#SVGID_147_"  style="overflow:visible;"/>
				</clipPath>
			</g>
			<g>
				<defs>
					<path id="SVGID_149_" d="M120.4,329.4h0.8c0.4,0,0.7,0.1,0.9,0.2c0.2,0.2,0.2,0.4,0.2,0.6c0,0.3-0.1,0.5-0.3,0.6
						c-0.2,0.2-0.4,0.2-0.8,0.2h-0.8V329.4z M118,327.2v8.4h2.4V333l1.9,2.6h3.1l-2.4-2.9c0.6-0.2,1-0.6,1.3-1
						c0.3-0.5,0.5-1,0.5-1.6c0-0.5-0.1-0.9-0.2-1.3c-0.1-0.4-0.4-0.7-0.6-0.9c-0.3-0.2-0.6-0.4-0.9-0.6c-0.4-0.1-0.8-0.2-1.2-0.2
						H118z"/>
				</defs>
				<clipPath id="SVGID_150_">
					<use xlink:href="#SVGID_149_"  style="overflow:visible;"/>
				</clipPath>
			</g>
			<g>
				<defs>
					<polygon id="SVGID_151_" points="125.6,327.2 125.6,335.6 132.1,335.6 132.1,333.6 128,333.6 128,332.4 131.7,332.4 
						131.7,330.4 128,330.4 128,329.3 132,329.3 132,327.2 					"/>
				</defs>
				<clipPath id="SVGID_152_">
					<use xlink:href="#SVGID_151_"  style="overflow:visible;"/>
				</clipPath>
			</g>
			<g>
				<defs>
					<polygon id="SVGID_153_" points="134.9,327.2 134.9,329.4 137.2,329.4 137.2,335.6 139.6,335.6 139.6,329.4 141.9,329.4 
						141.9,327.2 					"/>
				</defs>
				<clipPath id="SVGID_154_">
					<use xlink:href="#SVGID_153_"  style="overflow:visible;"/>
				</clipPath>
			</g>
			<g>
				<defs>
					<path id="SVGID_155_" d="M145.7,333.4c-0.2-0.1-0.5-0.3-0.6-0.5c-0.2-0.2-0.3-0.4-0.4-0.7c-0.1-0.3-0.2-0.5-0.2-0.8
						c0-0.3,0.1-0.6,0.2-0.8c0.1-0.3,0.3-0.5,0.4-0.7c0.2-0.2,0.4-0.3,0.6-0.5c0.2-0.1,0.5-0.2,0.8-0.2c0.3,0,0.5,0.1,0.8,0.2
						c0.2,0.1,0.5,0.3,0.6,0.5c0.2,0.2,0.3,0.4,0.4,0.7c0.1,0.3,0.2,0.5,0.2,0.8c0,0.3-0.1,0.6-0.2,0.8c-0.1,0.3-0.2,0.5-0.4,0.7
						c-0.2,0.2-0.4,0.3-0.6,0.5c-0.2,0.1-0.5,0.2-0.8,0.2C146.2,333.5,146,333.5,145.7,333.4 M144.8,327.4c-0.5,0.2-1,0.5-1.4,0.9
						c-0.4,0.4-0.7,0.9-1,1.4c-0.2,0.5-0.4,1.1-0.4,1.7c0,0.6,0.1,1.2,0.4,1.7s0.6,1,1,1.4c0.4,0.4,0.9,0.7,1.4,0.9
						c0.5,0.2,1.1,0.3,1.7,0.3c0.6,0,1.2-0.1,1.7-0.3c0.5-0.2,1-0.5,1.4-0.9c0.4-0.4,0.7-0.8,1-1.4c0.2-0.5,0.4-1.1,0.4-1.7
						c0-0.6-0.1-1.2-0.4-1.7c-0.2-0.5-0.6-1-1-1.4c-0.4-0.4-0.9-0.7-1.4-0.9c-0.5-0.2-1.1-0.3-1.7-0.3
						C145.9,327.1,145.3,327.2,144.8,327.4"/>
				</defs>
				<clipPath id="SVGID_156_">
					<use xlink:href="#SVGID_155_"  style="overflow:visible;"/>
				</clipPath>
			</g>
			<g>
				<defs>
					<path id="SVGID_157_" d="M156.6,327.4c-0.5,0.2-1,0.5-1.4,0.9c-0.4,0.4-0.7,0.8-1,1.4c-0.2,0.5-0.4,1.1-0.4,1.8
						c0,0.6,0.1,1.2,0.4,1.7c0.2,0.5,0.6,1,1,1.4c0.4,0.4,0.9,0.7,1.4,0.9c0.5,0.2,1.1,0.3,1.7,0.3c0.5,0,0.9-0.1,1.3-0.2
						c0.4-0.1,0.7-0.3,1.1-0.4c0.3-0.2,0.6-0.4,0.9-0.7c0.3-0.3,0.5-0.5,0.7-0.8l-1.8-1.3c-0.2,0.3-0.4,0.6-0.8,0.8
						c-0.3,0.2-0.7,0.3-1.2,0.3c-0.3,0-0.6,0-0.8-0.2c-0.3-0.1-0.5-0.2-0.7-0.4c-0.2-0.2-0.3-0.4-0.4-0.7c-0.1-0.3-0.2-0.5-0.2-0.9
						c0-0.3,0.1-0.6,0.2-0.8c0.1-0.3,0.3-0.5,0.4-0.7c0.2-0.2,0.4-0.3,0.6-0.4c0.2-0.1,0.5-0.2,0.8-0.2c0.4,0,0.8,0.1,1.1,0.3
						c0.3,0.2,0.6,0.5,0.8,0.9l1.9-1.3c-0.4-0.7-0.9-1.2-1.6-1.5c-0.6-0.4-1.4-0.6-2.3-0.6C157.7,327.1,157.1,327.2,156.6,327.4"/>
				</defs>
				<clipPath id="SVGID_158_">
					<use xlink:href="#SVGID_157_"  style="overflow:visible;"/>
				</clipPath>
			</g>
			<g>
				<defs>
					<path id="SVGID_159_" d="M165.1,329.4h0.8c0.4,0,0.7,0.1,0.9,0.2c0.2,0.2,0.2,0.4,0.2,0.6c0,0.3-0.1,0.5-0.3,0.6
						c-0.2,0.2-0.4,0.2-0.8,0.2h-0.8V329.4z M162.7,327.2v8.4h2.4V333l1.9,2.6h3.1l-2.4-2.9c0.6-0.2,1-0.6,1.3-1
						c0.3-0.5,0.5-1,0.5-1.6c0-0.5-0.1-0.9-0.2-1.3c-0.1-0.4-0.4-0.7-0.6-0.9c-0.3-0.2-0.6-0.4-0.9-0.6c-0.4-0.1-0.8-0.2-1.2-0.2
						H162.7z"/>
				</defs>
				<clipPath id="SVGID_160_">
					<use xlink:href="#SVGID_159_"  style="overflow:visible;"/>
				</clipPath>
			</g>
			<g>
				<defs>
					<polygon id="SVGID_161_" points="170.3,327.2 170.3,335.6 176.8,335.6 176.8,333.6 172.8,333.6 172.8,332.4 176.4,332.4 
						176.4,330.4 172.8,330.4 172.8,329.3 176.7,329.3 176.7,327.2 					"/>
				</defs>
				<clipPath id="SVGID_162_">
					<use xlink:href="#SVGID_161_"  style="overflow:visible;"/>
				</clipPath>
			</g>
			<g>
				<defs>
					<path id="SVGID_163_" d="M181.4,329.6l0.9,2.9h-1.8L181.4,329.6z M180,327.2l-2.8,8.4h2.4l0.4-1.2h2.9l0.4,1.2h2.6l-2.8-8.4
						H180z"/>
				</defs>
				<clipPath id="SVGID_164_">
					<use xlink:href="#SVGID_163_"  style="overflow:visible;"/>
				</clipPath>
			</g>
			<g>
				<defs>
					<polygon id="SVGID_165_" points="184.8,327.2 184.8,329.4 187.1,329.4 187.1,335.6 189.5,335.6 189.5,329.4 191.9,329.4 
						191.9,327.2 					"/>
				</defs>
				<clipPath id="SVGID_166_">
					<use xlink:href="#SVGID_165_"  style="overflow:visible;"/>
				</clipPath>
			</g>
			<g>
				<defs>
					<polygon id="SVGID_167_" points="192.5,327.2 192.5,335.6 198.9,335.6 198.9,333.6 194.9,333.6 194.9,332.4 198.5,332.4 
						198.5,330.4 194.9,330.4 194.9,329.3 198.9,329.3 198.9,327.2 					"/>
				</defs>
				<clipPath id="SVGID_168_">
					<use xlink:href="#SVGID_167_"  style="overflow:visible;"/>
				</clipPath>
			</g>
		</g>
	</g>
</g>
</svg>
